<svg width="205" height="46" viewBox="0 0 205 46" fill="none" xmlns="http://www.w3.org/2000/svg">
<path fill-rule="evenodd" clip-rule="evenodd" d="M15.7928 26.3088L15.9547 16.246C17.1062 15.8853 18.3596 15.747 19.715 15.8312C20.8665 15.8913 21.7961 16.2219 22.5037 16.8231C23.0795 17.316 23.4993 17.9652 23.7632 18.7707C24.063 19.6964 24.153 20.6162 24.033 21.5299C23.8651 23.0447 23.3314 24.2229 22.4318 25.0645C22.1047 25.3705 21.7343 25.6293 21.3205 25.8409C20.8586 26.0771 20.3427 26.2545 19.7728 26.3732C19.7299 26.3821 19.6866 26.3907 19.643 26.399C18.3236 26.6394 17.0402 26.6094 15.7928 26.3088ZM20.6866 36.2274C17.7959 36.7203 14.5934 36.8405 11.079 36.5881C9.32776 36.4678 7.87043 36.2935 6.70696 36.0651L5.5195 7.28319C9.39373 6.08094 13.6578 5.49785 18.3117 5.53392C23.6555 5.53392 27.6839 7.17344 30.397 10.4525C31.1063 11.3098 31.7258 12.2791 32.2553 13.3606C32.6991 14.2623 33.0649 15.2241 33.3528 16.246C33.5807 17.0515 33.7606 17.8871 33.8925 18.7527C34.0365 19.7265 34.0964 20.538 34.0724 21.1872C34.2477 25.7073 33.0062 29.2637 30.348 31.8562C30.2771 31.9253 30.2052 31.9938 30.1322 32.0616C27.8773 34.1415 24.7287 35.5301 20.6866 36.2274ZM30.3879 38.6749C27.7923 40.1652 24.8211 41.1278 21.6227 41.6796L21.6123 41.6814C18.2114 42.2613 14.5603 42.3841 10.6938 42.1069C8.81401 41.9777 7.11245 41.7822 5.64599 41.4943C3.13986 41.0022 1.29773 38.8512 1.19221 36.2937L0.00475608 7.51178C-0.0987074 5.00401 1.49508 2.74064 3.88713 1.99834C8.37088 0.606936 13.2018 -0.0363523 18.3335 0.00158293C22.3942 0.00440107 26.2173 0.792855 29.5501 2.66358C30.1093 2.9775 30.6457 3.31685 31.1592 3.68052C32.0899 2.08697 33.794 0.999683 35.7636 0.941715L57.2098 0.310533C58.5854 0.270046 59.859 0.737853 60.8501 1.54488C64.102 0.922872 67.4001 0.718096 70.7336 0.93267L70.7457 0.933465C74.841 1.20617 78.6665 2.24898 81.8191 4.46259C81.9986 4.5882 82.1744 4.7165 82.3465 4.84745C83.1336 3.16363 84.7435 1.93586 86.6834 1.70071C91.2465 1.14753 95.8134 1.22173 100.37 1.92127C103.165 2.33993 105.798 3.03552 108.138 4.11871C108.87 3.0017 110.002 2.15696 111.362 1.80255C115.907 0.618329 120.763 0.206263 125.886 0.496061C129.901 0.692566 133.647 1.64597 136.865 3.63146C137.739 1.61953 139.769 0.242257 142.089 0.310533L163.535 0.941715C165.112 0.988121 166.518 1.69419 167.494 2.79158L174.838 0.638769C176.969 0.0141159 179.266 0.730049 180.668 2.45581L181.896 3.96863L183.321 2.14349C184.963 0.0387685 187.872 -0.588509 190.232 0.652857L200.83 6.22529C202.298 6.99746 203.342 8.39048 203.674 10.0191C204.005 11.6477 203.588 13.3393 202.538 14.6261L196.516 22.0092L202.891 29.8709C203.939 31.1641 204.35 32.8621 204.01 34.4932C203.669 36.1243 202.613 37.5147 201.135 38.2779L190.52 43.7602C188.165 44.9767 185.279 44.3437 183.646 42.2522L181.874 39.983L181.436 40.5199C180.027 42.2504 177.717 42.9612 175.581 42.3217L168.47 40.1924C168.195 40.7992 167.81 41.3571 167.329 41.8353C166.279 42.8774 164.856 43.4542 163.379 43.4365L142.275 43.184C140.794 43.1663 139.382 42.5528 138.357 41.4813C137.732 40.8284 137.283 40.0387 137.037 39.1856C134.147 40.8672 130.795 41.8395 127.184 42.278C123.754 42.7017 120.101 42.6529 116.258 42.1903C114.376 41.9704 112.675 41.6901 111.214 41.3241C108.743 40.7049 107.016 38.4716 107.033 35.9188L107.046 34.1011C105.476 34.8067 103.832 35.2851 102.133 35.5453L102.076 37.7935C102 40.7631 99.5978 43.1426 96.6345 43.1839L86.2713 43.3281C85.0044 43.3458 83.778 42.9263 82.7919 42.1523L80.7828 43.8135C79.6022 44.7895 78.0703 45.2305 76.5529 45.031C75.0355 44.8315 73.6688 44.0095 72.7793 42.7612L72.3158 42.1108C71.4274 42.7272 70.3701 43.0738 69.2728 43.0934L59.1794 43.2737C58.7077 43.2821 58.2411 43.2299 57.7902 43.1212C57.538 43.1597 57.282 43.1809 57.0239 43.184L35.9195 43.4365C34.4421 43.4542 33.0194 42.8774 31.9696 41.8353C31.1067 40.9786 30.5551 39.8663 30.3879 38.6749ZM56.958 37.6521L35.8536 37.9045L35.9256 6.47167L57.3718 5.84049L57.6956 14.6229L45.7311 14.3885L45.875 17.9412L52.0642 17.9592L52.4061 25.9481L46.019 25.4612L46.1089 29.2483L56.7061 29.2123L56.958 37.6521ZM59.081 37.7422L69.1744 37.5619L68.7246 27.5532L77.2707 39.5456L85.385 32.837L78.872 26.2006C79.7764 25.7339 80.5439 25.1431 81.1742 24.4284C81.3881 24.1858 81.5863 23.929 81.7686 23.6579C81.9318 23.416 82.0814 23.164 82.2176 22.9018C82.562 22.2388 82.8202 21.511 82.9921 20.7184C83.2559 19.456 83.2979 18.3078 83.118 17.2739C82.9301 15.3468 82.4349 13.6737 81.6323 12.2545C80.8977 10.9557 79.9056 9.86968 78.6561 8.9964C76.569 7.52966 73.8103 6.68207 70.3798 6.45364C67.8696 6.29206 65.3864 6.40624 62.9303 6.7962C61.5487 7.01554 60.1756 7.32215 58.8111 7.716L59.081 37.7422ZM68.3648 20.7725C68.7472 20.798 69.1313 20.776 69.5171 20.7065C69.8574 20.6452 70.1989 20.547 70.5418 20.4118C71.9811 19.8347 72.6888 18.7527 72.6648 17.1657C72.6528 16.3001 72.4069 15.5787 71.9271 15.0016C71.5193 14.5328 70.9796 14.1721 70.3079 13.9196C69.5162 13.6191 68.7306 13.4808 67.951 13.5048L68.3648 20.7725ZM86.1946 37.7963L96.5579 37.6521L96.7558 29.8975C97.5594 30.2101 98.6989 30.3123 100.174 30.2041C100.668 30.1671 101.152 30.1065 101.627 30.0224C102.848 29.806 104.007 29.4338 105.104 28.9057C105.826 28.556 106.488 28.1554 107.09 27.7037C110.004 25.5151 111.501 22.1287 111.581 17.5444C111.617 14.4907 110.382 12.0802 107.875 10.3129C107.662 10.1633 107.441 10.0188 107.212 9.87913C105.266 8.69388 102.71 7.86463 99.5445 7.3914C95.4784 6.76623 91.4122 6.7001 87.3461 7.19303L86.1946 37.7963ZM97.0436 22.3053C97.4459 22.3693 97.8516 22.3822 98.2607 22.344C98.62 22.3104 98.982 22.2374 99.3466 22.125C100.918 21.62 101.763 20.4478 101.883 18.6084C101.943 17.5865 101.745 16.7028 101.29 15.9574C100.918 15.3683 100.384 14.8874 99.6884 14.5147C98.8968 14.0819 98.1052 13.8355 97.3135 13.7754L97.0436 22.3053ZM112.553 35.9569C113.704 36.2454 115.155 36.4919 116.907 36.6963C120.397 37.1171 123.6 37.1471 126.514 36.7864C130.58 36.2935 133.789 35.0612 136.14 33.0895C136.434 32.8408 136.713 32.5812 136.978 32.3107C137.894 31.3747 138.637 30.308 139.206 29.1107C139.908 27.6339 140.345 25.9583 140.518 24.084C140.568 23.5437 140.596 22.9869 140.602 22.4135C140.66 21.7805 140.639 20.9931 140.538 20.0513C140.535 20.0273 140.532 20.0032 140.53 19.979C140.446 19.1013 140.308 18.2537 140.116 17.4362C139.878 16.4091 139.562 15.4413 139.17 14.5328C139.168 14.5268 139.165 14.5208 139.162 14.5147C138.42 12.7947 137.448 11.3349 136.245 10.1354C133.715 7.61236 130.165 6.24084 125.597 6.02083C120.955 5.75634 116.673 6.13504 112.75 7.15696L112.553 35.9569ZM126.514 16.3722C125.159 16.2279 123.899 16.3061 122.736 16.6067L122.106 26.6515C123.33 27.0121 124.607 27.1023 125.938 26.922C125.985 26.9156 126.032 26.9088 126.078 26.9016C126.655 26.8123 127.178 26.661 127.649 26.4477C128.068 26.2581 128.445 26.0194 128.781 25.7317C129.729 24.9262 130.322 23.7721 130.562 22.2693C130.718 21.3676 130.67 20.4478 130.418 19.5101C130.191 18.6926 129.801 18.0193 129.249 17.4903C128.577 16.8651 127.666 16.4924 126.514 16.3722ZM142.34 37.6521L163.445 37.9045L163.373 6.47167L141.927 5.84049L141.647 13.4336L141.646 13.4381L141.603 14.6229L153.567 14.3885L153.423 17.9412L147.234 17.9592L146.892 25.9481L153.279 25.4612L153.189 29.2483L142.592 29.2123L142.34 37.6521ZM177.161 37.0209L181.965 31.1238L187.992 38.8423L198.607 33.36L189.395 21.9988L198.265 11.1244L187.668 5.55195L181.983 12.8376L176.387 5.9487L164.945 9.30298L174.822 21.9807L165.718 33.5945L177.161 37.0209Z" fill="white"/>
</svg>
