<svg width="182" height="25" viewBox="0 0 182 25" fill="none" xmlns="http://www.w3.org/2000/svg">
<path d="M9.54918 13.826C9.54918 12.962 9.34651 12.2953 8.94118 11.826C8.53585 11.346 8.00785 11.106 7.35718 11.106C6.99451 11.106 6.70651 11.122 6.49318 11.154C6.29051 11.186 6.13051 11.2233 6.01318 11.266V15.954C6.16251 16.0926 6.38118 16.2206 6.66918 16.338C6.95718 16.4553 7.25585 16.514 7.56518 16.514C7.91718 16.514 8.21585 16.4446 8.46118 16.306C8.71718 16.1673 8.92518 15.9806 9.08518 15.746C9.24518 15.5006 9.36251 15.218 9.43718 14.898C9.51185 14.5673 9.54918 14.21 9.54918 13.826ZM10.9092 13.826C10.9092 14.3913 10.8345 14.914 10.6852 15.394C10.5465 15.8633 10.3385 16.2686 10.0612 16.61C9.79451 16.9513 9.46385 17.218 9.06918 17.41C8.67451 17.602 8.22651 17.698 7.72518 17.698C7.33051 17.698 6.98385 17.65 6.68518 17.554C6.38651 17.458 6.16251 17.3513 6.01318 17.234V20.162H4.68518V10.322C4.97318 10.2366 5.34118 10.1513 5.78918 10.066C6.24785 9.98064 6.77051 9.93797 7.35718 9.93797C7.89051 9.93797 8.37585 10.0286 8.81318 10.21C9.25051 10.3913 9.62385 10.6526 9.93318 10.994C10.2425 11.3246 10.4825 11.73 10.6532 12.21C10.8238 12.69 10.9092 13.2286 10.9092 13.826ZM18.9092 13.81C18.9092 14.3966 18.8238 14.93 18.6532 15.41C18.4932 15.8793 18.2638 16.2846 17.9652 16.626C17.6665 16.9673 17.3092 17.234 16.8932 17.426C16.4772 17.6073 16.0238 17.698 15.5332 17.698C15.0532 17.698 14.6052 17.6073 14.1892 17.426C13.7838 17.234 13.4318 16.9673 13.1332 16.626C12.8345 16.2846 12.5998 15.8793 12.4292 15.41C12.2692 14.93 12.1892 14.3966 12.1892 13.81C12.1892 13.2233 12.2692 12.69 12.4292 12.21C12.5998 11.73 12.8345 11.3246 13.1332 10.994C13.4318 10.6526 13.7838 10.3913 14.1892 10.21C14.6052 10.018 15.0532 9.92197 15.5332 9.92197C16.0238 9.92197 16.4772 10.018 16.8932 10.21C17.3092 10.3913 17.6665 10.6526 17.9652 10.994C18.2638 11.3246 18.4932 11.73 18.6532 12.21C18.8238 12.69 18.9092 13.2233 18.9092 13.81ZM17.5492 13.81C17.5492 12.9673 17.3678 12.306 17.0052 11.826C16.6425 11.3353 16.1518 11.09 15.5332 11.09C14.9252 11.09 14.4398 11.3353 14.0772 11.826C13.7252 12.306 13.5492 12.9673 13.5492 13.81C13.5492 14.642 13.7252 15.3033 14.0772 15.794C14.4398 16.274 14.9252 16.514 15.5332 16.514C16.1518 16.514 16.6425 16.274 17.0052 15.794C17.3678 15.3033 17.5492 14.642 17.5492 13.81ZM25.0372 17.522C24.8772 17.1593 24.7385 16.8286 24.6212 16.53C24.5038 16.2313 24.3865 15.9326 24.2692 15.634C24.1625 15.3353 24.0505 15.026 23.9332 14.706C23.8265 14.3753 23.6985 14.002 23.5492 13.586C23.3998 14.002 23.2665 14.3753 23.1492 14.706C23.0318 15.026 22.9145 15.3353 22.7972 15.634C22.6905 15.9326 22.5732 16.2313 22.4452 16.53C22.3278 16.8286 22.1892 17.1593 22.0292 17.522H21.0372C20.7385 16.21 20.4878 14.914 20.2852 13.634C20.0932 12.3433 19.9492 11.1646 19.8532 10.098H21.1012C21.1332 10.514 21.1652 10.9246 21.1972 11.33C21.2398 11.7246 21.2878 12.1406 21.3412 12.578C21.3945 13.0153 21.4532 13.49 21.5172 14.002C21.5918 14.514 21.6718 15.09 21.7572 15.73C21.9278 15.3033 22.0718 14.93 22.1892 14.61C22.3065 14.29 22.4132 13.986 22.5092 13.698C22.6052 13.41 22.6958 13.1166 22.7812 12.818C22.8772 12.5193 22.9785 12.1833 23.0852 11.81H24.0772C24.1838 12.1833 24.2798 12.5193 24.3652 12.818C24.4505 13.1166 24.5412 13.41 24.6372 13.698C24.7332 13.986 24.8345 14.29 24.9412 14.61C25.0478 14.93 25.1812 15.298 25.3412 15.714C25.4372 15.1273 25.5225 14.5833 25.5972 14.082C25.6718 13.5806 25.7358 13.1113 25.7892 12.674C25.8425 12.226 25.8905 11.794 25.9332 11.378C25.9758 10.962 26.0132 10.5353 26.0452 10.098H27.2452C27.1918 10.6313 27.1278 11.202 27.0532 11.81C26.9785 12.418 26.8878 13.042 26.7812 13.682C26.6745 14.322 26.5572 14.9726 26.4292 15.634C26.3012 16.2846 26.1678 16.914 26.0292 17.522H25.0372ZM31.6932 9.92197C32.6958 9.92197 33.4692 10.2366 34.0132 10.866C34.5572 11.4846 34.8292 12.4286 34.8292 13.698V14.162H29.5172C29.5705 14.93 29.8212 15.5166 30.2692 15.922C30.7278 16.3166 31.3678 16.514 32.1892 16.514C32.6585 16.514 33.0585 16.4766 33.3892 16.402C33.7198 16.3273 33.9705 16.2473 34.1412 16.162L34.3172 17.282C34.1572 17.3673 33.8692 17.458 33.4532 17.554C33.0372 17.65 32.5678 17.698 32.0452 17.698C31.4052 17.698 30.8398 17.602 30.3492 17.41C29.8692 17.2073 29.4692 16.9353 29.1492 16.594C28.8292 16.2526 28.5892 15.8473 28.4292 15.378C28.2692 14.898 28.1892 14.3806 28.1892 13.826C28.1892 13.1646 28.2905 12.5886 28.4932 12.098C28.6958 11.6073 28.9625 11.202 29.2932 10.882C29.6238 10.562 29.9972 10.322 30.4132 10.162C30.8292 10.002 31.2558 9.92197 31.6932 9.92197ZM33.4852 13.09C33.4852 12.4606 33.3198 11.9646 32.9892 11.602C32.6585 11.2286 32.2212 11.042 31.6772 11.042C31.3678 11.042 31.0852 11.1006 30.8292 11.218C30.5838 11.3353 30.3705 11.49 30.1892 11.682C30.0078 11.874 29.8638 12.0926 29.7572 12.338C29.6505 12.5833 29.5812 12.834 29.5492 13.09H33.4852ZM37.2612 17.522V10.498C38.3492 10.1246 39.4478 9.93797 40.5572 9.93797C40.8985 9.93797 41.2238 9.95397 41.5332 9.98597C41.8425 10.0073 42.1838 10.0606 42.5572 10.146L42.3172 11.314C41.9758 11.218 41.6718 11.1593 41.4052 11.138C41.1492 11.106 40.8665 11.09 40.5572 11.09C39.9065 11.09 39.2452 11.1806 38.5732 11.362V17.522H37.2612ZM47.6932 9.92197C48.6958 9.92197 49.4692 10.2366 50.0132 10.866C50.5572 11.4846 50.8292 12.4286 50.8292 13.698V14.162H45.5172C45.5705 14.93 45.8212 15.5166 46.2692 15.922C46.7278 16.3166 47.3678 16.514 48.1892 16.514C48.6585 16.514 49.0585 16.4766 49.3892 16.402C49.7198 16.3273 49.9705 16.2473 50.1412 16.162L50.3172 17.282C50.1572 17.3673 49.8692 17.458 49.4532 17.554C49.0372 17.65 48.5678 17.698 48.0452 17.698C47.4052 17.698 46.8398 17.602 46.3492 17.41C45.8692 17.2073 45.4692 16.9353 45.1492 16.594C44.8292 16.2526 44.5892 15.8473 44.4292 15.378C44.2692 14.898 44.1892 14.3806 44.1892 13.826C44.1892 13.1646 44.2905 12.5886 44.4932 12.098C44.6958 11.6073 44.9625 11.202 45.2932 10.882C45.6238 10.562 45.9972 10.322 46.4132 10.162C46.8292 10.002 47.2558 9.92197 47.6932 9.92197ZM49.4852 13.09C49.4852 12.4606 49.3198 11.9646 48.9892 11.602C48.6585 11.2286 48.2212 11.042 47.6772 11.042C47.3678 11.042 47.0852 11.1006 46.8292 11.218C46.5838 11.3353 46.3705 11.49 46.1892 11.682C46.0078 11.874 45.8638 12.0926 45.7572 12.338C45.6505 12.5833 45.5812 12.834 45.5492 13.09H49.4852ZM57.0852 11.666C56.9358 11.5273 56.7172 11.3993 56.4292 11.282C56.1412 11.154 55.8425 11.09 55.5332 11.09C55.1812 11.09 54.8772 11.1593 54.6212 11.298C54.3758 11.4366 54.1732 11.6286 54.0132 11.874C53.8532 12.1086 53.7358 12.3966 53.6612 12.738C53.5865 13.0686 53.5492 13.426 53.5492 13.81C53.5492 14.674 53.7518 15.3406 54.1572 15.81C54.5625 16.2793 55.0905 16.514 55.7412 16.514C56.0718 16.514 56.3492 16.498 56.5732 16.466C56.8078 16.434 56.9785 16.402 57.0852 16.37V11.666ZM57.0852 6.65797L58.4132 6.43397V17.314C58.1252 17.3993 57.7572 17.4846 57.3092 17.57C56.8612 17.6553 56.3385 17.698 55.7412 17.698C55.2078 17.698 54.7225 17.6073 54.2852 17.426C53.8478 17.2446 53.4745 16.9886 53.1652 16.658C52.8558 16.3166 52.6158 15.906 52.4452 15.426C52.2745 14.946 52.1892 14.4073 52.1892 13.81C52.1892 13.234 52.2585 12.7113 52.3972 12.242C52.5465 11.762 52.7598 11.3513 53.0372 11.01C53.3145 10.6686 53.6452 10.402 54.0292 10.21C54.4238 10.018 54.8718 9.92197 55.3732 9.92197C55.7678 9.92197 56.1145 9.96997 56.4132 10.066C56.7118 10.162 56.9358 10.2633 57.0852 10.37V6.65797ZM70.0132 10.37C70.1732 10.274 70.4025 10.178 70.7012 10.082C71.0105 9.97531 71.3518 9.92197 71.7252 9.92197C72.2265 9.92197 72.6745 10.018 73.0692 10.21C73.4638 10.402 73.7945 10.6686 74.0612 11.01C74.3385 11.3513 74.5465 11.762 74.6852 12.242C74.8345 12.7113 74.9092 13.234 74.9092 13.81C74.9092 14.4073 74.8238 14.946 74.6532 15.426C74.4825 15.906 74.2425 16.3166 73.9332 16.658C73.6238 16.9886 73.2505 17.2446 72.8132 17.426C72.3758 17.6073 71.8905 17.698 71.3572 17.698C70.7705 17.698 70.2478 17.6553 69.7892 17.57C69.3305 17.4846 68.9625 17.3993 68.6852 17.314V6.65797L70.0132 6.43397V10.37ZM70.0132 16.37C70.2158 16.4233 70.4185 16.466 70.6212 16.498C70.8238 16.5193 71.0158 16.53 71.1972 16.53C71.9332 16.53 72.5092 16.306 72.9252 15.858C73.3412 15.3993 73.5492 14.7166 73.5492 13.81C73.5492 13.426 73.5118 13.0686 73.4372 12.738C73.3625 12.3966 73.2452 12.1086 73.0852 11.874C72.9252 11.6286 72.7172 11.4366 72.4612 11.298C72.2158 11.1593 71.9172 11.09 71.5652 11.09C71.2558 11.09 70.9572 11.154 70.6692 11.282C70.3812 11.3993 70.1625 11.5273 70.0132 11.666V16.37ZM76.3652 18.914C76.4612 18.9673 76.5945 19.01 76.7652 19.042C76.9465 19.074 77.1118 19.09 77.2612 19.09C77.7838 19.09 78.1892 18.9726 78.4772 18.738C78.7758 18.514 79.0478 18.1406 79.2932 17.618C78.6958 16.4873 78.1358 15.2766 77.6132 13.986C77.0905 12.6846 76.6585 11.3886 76.3172 10.098H77.7572C77.8638 10.5246 77.9865 10.9886 78.1252 11.49C78.2745 11.9806 78.4398 12.4873 78.6212 13.01C78.8025 13.5326 78.9945 14.0606 79.1972 14.594C79.4105 15.1166 79.6345 15.618 79.8692 16.098C80.0398 15.6073 80.1998 15.122 80.3492 14.642C80.4985 14.162 80.6372 13.682 80.7652 13.202C80.8932 12.7113 81.0212 12.2153 81.1492 11.714C81.2772 11.202 81.4105 10.6633 81.5492 10.098H82.9252C82.5838 11.4846 82.1998 12.8286 81.7732 14.13C81.3572 15.4313 80.9092 16.6366 80.4292 17.746C80.2478 18.1726 80.0505 18.5406 79.8372 18.85C79.6345 19.1593 79.4105 19.4153 79.1652 19.618C78.9198 19.8206 78.6425 19.97 78.3332 20.066C78.0238 20.162 77.6718 20.21 77.2772 20.21C77.0745 20.21 76.8505 20.1833 76.6052 20.13C76.3705 20.0766 76.2105 20.0286 76.1252 19.986L76.3652 18.914Z" fill="black"/>
<path fill-rule="evenodd" clip-rule="evenodd" d="M126.212 12.522L117.904 3.94552V10.2299L109.653 16.5183L117.904 16.5223V21.1025L126.212 12.522Z" fill="black"/>
<path fill-rule="evenodd" clip-rule="evenodd" d="M96.9216 12.522L105.23 21.1025V14.8817L113.423 8.58929L105.234 8.58532V3.94153L96.9216 12.522Z" fill="black"/>
<path d="M139.005 17.575H132.63V15.6841L136.28 11.4773H132.723V9.61818H138.94V11.4137L135.182 15.7H139.005V17.575Z" fill="black"/>
<path d="M147.704 9.61812L144.619 12.9669L147.766 17.5749H145.214L143.177 14.536L142.315 15.4735V17.5749H140.231V5.86813H142.315V12.5816L144.979 9.62209H147.704V9.61812Z" fill="black"/>
<path d="M156.767 8.84354L154.826 9.45927C154.752 9.0501 154.555 8.67669 154.23 8.34301C153.906 8.00932 153.43 7.84248 152.804 7.84248C152.293 7.84248 151.876 7.98946 151.551 8.27945C151.226 8.56149 151.064 8.89915 151.064 9.2964C151.064 9.99555 151.466 10.4285 152.27 10.5914L153.821 10.8973C154.803 11.0919 155.564 11.4971 156.109 12.1089C156.654 12.7246 156.925 13.4476 156.925 14.2778C156.925 15.2273 156.562 16.0575 155.827 16.7686C155.108 17.4677 154.134 17.8213 152.912 17.8213C152.212 17.8213 151.582 17.714 151.018 17.4995C150.453 17.285 150.001 16.999 149.657 16.6415C149.313 16.276 149.042 15.8907 148.841 15.4934C148.651 15.0843 148.539 14.6632 148.497 14.2302L150.503 13.682C150.554 14.2977 150.786 14.8102 151.192 15.2193C151.609 15.6285 152.189 15.835 152.931 15.835C153.496 15.835 153.933 15.704 154.246 15.4457C154.571 15.1875 154.733 14.8459 154.733 14.4288C154.733 14.0951 154.613 13.8091 154.373 13.5708C154.145 13.3245 153.813 13.1576 153.388 13.0702L151.837 12.7485C150.94 12.5538 150.229 12.1724 149.707 11.6004C149.185 11.0284 148.926 10.3173 148.926 9.46721C148.926 8.45424 149.301 7.60016 150.055 6.91293C150.816 6.22172 151.729 5.87612 152.796 5.87612C153.434 5.87612 154.002 5.96748 154.505 6.15021C155.007 6.33295 155.41 6.58321 155.711 6.89306C156.013 7.19497 156.249 7.50879 156.415 7.83056C156.573 8.14836 156.693 8.48602 156.767 8.84354Z" fill="black"/>
<path d="M160.432 20.7132H158.224L160.041 16.5739L156.767 9.61818H159.102L161.155 14.2739L163.049 9.61818H165.272L160.432 20.7132Z" fill="black"/>
<path d="M168.149 12.9987V17.575H166.065V9.61814H168.087V10.6033C168.307 10.214 168.62 9.92005 169.026 9.71348C169.432 9.50691 169.861 9.4076 170.31 9.4076C171.218 9.4076 171.907 9.70553 172.378 10.2974C172.858 10.8814 173.097 11.6361 173.097 12.5617V17.575H171.014V12.9351C171.014 12.4624 170.894 12.0771 170.654 11.7871C170.426 11.4971 170.07 11.3501 169.587 11.3501C169.15 11.3501 168.798 11.5051 168.539 11.8189C168.28 12.1327 168.149 12.526 168.149 12.9987Z" fill="black"/>
<path d="M178.205 11.3661C177.652 11.3661 177.188 11.5647 176.809 11.9659C176.434 12.3632 176.244 12.9074 176.244 13.5986C176.244 14.2898 176.434 14.838 176.809 15.2472C177.196 15.6444 177.663 15.847 178.22 15.847C178.711 15.847 179.102 15.7159 179.395 15.4577C179.689 15.1876 179.886 14.8698 179.991 14.5043L181.823 15.1359C181.634 15.8708 181.228 16.4985 180.602 17.0268C179.975 17.5551 179.183 17.8173 178.22 17.8173C177.072 17.8173 176.105 17.4201 175.32 16.6216C174.547 15.8112 174.161 14.8062 174.161 13.5986C174.161 12.379 174.543 11.374 175.305 10.5755C176.078 9.77709 177.029 9.37984 178.154 9.37984C179.136 9.37984 179.941 9.64202 180.567 10.1704C181.193 10.6868 181.595 11.3184 181.773 12.0612L179.91 12.7088C179.662 11.811 179.094 11.3661 178.205 11.3661Z" fill="black"/>
</svg>
