<svg width="439" height="120" viewBox="0 0 439 120" fill="none" xmlns="http://www.w3.org/2000/svg">
<path fill-rule="evenodd" clip-rule="evenodd" d="M29.542 48.0816L29.8372 29.733C31.9368 29.0753 34.2223 28.8232 36.6937 28.9767C38.7933 29.0863 40.4883 29.6891 41.7787 30.7852C42.8285 31.684 43.594 32.8678 44.0751 34.3366C44.6219 36.0246 44.7859 37.7016 44.5672 39.3676C44.261 42.1298 43.2878 44.2781 41.6475 45.8127C41.0511 46.3706 40.3757 46.8425 39.6212 47.2283C38.779 47.6591 37.8383 47.9826 36.7992 48.1989C36.7208 48.2152 36.6419 48.2309 36.5625 48.246C34.1567 48.6844 31.8165 48.6296 29.542 48.0816ZM38.4653 66.1672C33.1944 67.066 27.3549 67.2852 20.9467 66.8248C17.7536 66.6056 15.0963 66.2877 12.9748 65.8712L10.8096 13.3902C17.8739 11.198 25.6489 10.1348 34.1348 10.2006C43.8787 10.2006 51.2242 13.1901 56.1713 19.1691C57.4647 20.7323 58.5942 22.4998 59.5597 24.4717C60.3689 26.1158 61.036 27.8696 61.5609 29.733C61.9764 31.2017 62.3045 32.7253 62.5451 34.3037C62.8075 36.0794 62.9169 37.5591 62.8731 38.7429C63.1927 46.9849 60.929 53.4694 56.082 58.1967C55.9527 58.3228 55.8215 58.4476 55.6886 58.5712C51.5768 62.3637 45.8357 64.8957 38.4653 66.1672ZM56.1548 70.63C51.4219 73.3475 46.0043 75.1026 40.1723 76.1087L40.1532 76.112C33.952 77.1694 27.2947 77.3933 20.2443 76.8879C16.8168 76.6522 13.7142 76.2958 11.0402 75.7708C6.47053 74.8736 3.11158 70.9514 2.91919 66.288L0.753973 13.807C0.565317 9.23431 3.47143 5.10727 7.83311 3.75376C16.0088 1.21667 24.8175 0.0437005 34.1747 0.112872C41.5789 0.11801 48.55 1.55568 54.627 4.96677C55.6468 5.53917 56.6248 6.15794 57.5611 6.82106C59.2581 3.91537 62.3654 1.93281 65.9568 1.82711L105.062 0.676212C107.57 0.602389 109.892 1.45539 111.7 2.92692C117.629 1.79275 123.643 1.41936 129.721 1.81062L129.743 1.81207C137.211 2.30931 144.186 4.21079 149.934 8.24708C150.262 8.47612 150.582 8.71008 150.896 8.94884C152.332 5.87857 155.267 3.63985 158.804 3.21106C167.125 2.20239 175.452 2.33769 183.76 3.61324C188.857 4.37663 193.659 5.64496 197.924 7.62005C199.26 5.58331 201.323 4.043 203.803 3.39676C212.091 1.23745 220.945 0.486085 230.287 1.0145C237.608 1.37281 244.438 3.11125 250.305 6.7316C251.9 3.06304 255.6 0.551717 259.83 0.676212L298.935 1.82711C301.81 1.91173 304.375 3.19918 306.155 5.20016L319.546 1.27472C323.431 0.135724 327.62 1.44116 330.175 4.58792L332.416 7.34641L335.013 4.01842C338.008 0.180676 343.311 -0.963104 347.616 1.30041L366.939 11.4612C369.616 12.8692 371.52 15.4092 372.124 18.3789C372.729 21.3485 371.969 24.433 370.055 26.7793L359.074 40.2417L370.697 54.5766C372.609 56.9347 373.358 60.0309 372.737 63.0051C372.116 65.9792 370.191 68.5144 367.496 69.9061L348.14 79.9025C343.845 82.1207 338.584 80.9665 335.606 77.1528L332.375 73.0151L331.577 73.9941C329.007 77.1496 324.795 78.4457 320.901 77.2796L307.934 73.397C307.433 74.5035 306.732 75.5207 305.853 76.3926C303.939 78.2928 301.345 79.3445 298.651 79.3122L260.169 78.8519C257.469 78.8196 254.895 77.7009 253.026 75.7472C251.886 74.5566 251.067 73.1167 250.619 71.5612C245.349 74.6274 239.237 76.4002 232.652 77.1998C226.398 77.9724 219.739 77.8835 212.73 77.0399C209.299 76.6389 206.197 76.1278 203.533 75.4604C199.028 74.3315 195.878 70.2592 195.91 65.6044L195.933 62.29C193.07 63.5767 190.074 64.449 186.975 64.9235L186.87 69.0229C186.732 74.4375 182.352 78.7764 176.949 78.8516L158.053 79.1147C155.743 79.1468 153.507 78.3819 151.708 76.9707L148.045 79.9996C145.892 81.7794 143.099 82.5834 140.332 82.2196C137.565 81.8559 135.073 80.357 133.451 78.081L132.606 76.895C130.986 78.0189 129.059 78.6508 127.058 78.6866L108.653 79.0154C107.793 79.0308 106.942 78.9356 106.12 78.7373C105.66 78.8076 105.193 78.8462 104.723 78.8519L66.2411 79.3122C63.5472 79.3445 60.953 78.2928 59.0389 76.3926C57.4654 74.8306 56.4595 72.8024 56.1548 70.63ZM104.603 68.7649L66.121 69.2253L66.2522 11.9105L105.357 10.7596L105.948 26.7735L84.1316 26.346L84.394 32.824L95.6794 32.8568L96.3027 47.4239L84.6565 46.5361L84.8205 53.4415L104.143 53.3757L104.603 68.7649ZM108.474 68.9293L126.878 68.6005L126.058 50.3505L141.641 72.2176L156.437 59.9852L144.561 47.8843C146.21 47.0332 147.609 45.956 148.759 44.6528C149.149 44.2105 149.51 43.7422 149.843 43.2478C150.14 42.8068 150.413 42.3473 150.661 41.8693C151.289 40.6604 151.76 39.3332 152.073 37.8879C152.555 35.5861 152.631 33.4926 152.303 31.6073C151.96 28.0933 151.057 25.0426 149.594 22.455C148.254 20.0867 146.445 18.1064 144.167 16.5141C140.362 13.8396 135.331 12.2941 129.076 11.8776C124.499 11.5829 119.971 11.7912 115.493 12.5022C112.973 12.9022 110.47 13.4612 107.982 14.1794L108.474 68.9293ZM125.402 37.9866C126.099 38.0332 126.8 37.9931 127.503 37.8664C128.123 37.7546 128.746 37.5754 129.371 37.3289C131.996 36.2767 133.286 34.3037 133.243 31.41C133.221 29.8316 132.772 28.5163 131.898 27.464C131.154 26.6091 130.17 25.9514 128.945 25.4911C127.501 24.943 126.069 24.6909 124.647 24.7348L125.402 37.9866ZM157.913 69.028L176.809 68.7649L177.17 54.6253C178.636 55.1952 180.713 55.3816 183.403 55.1843C184.303 55.1168 185.186 55.0064 186.052 54.853C188.279 54.4584 190.392 53.7797 192.392 52.8167C193.709 52.1792 194.916 51.4486 196.013 50.625C201.328 46.6343 204.058 40.4595 204.203 32.1005C204.268 26.5324 202.015 22.137 197.444 18.9145C197.057 18.6419 196.654 18.3782 196.236 18.1236C192.687 15.9624 188.027 14.4504 182.255 13.5875C174.841 12.4475 167.427 12.327 160.012 13.2258L157.913 69.028ZM177.695 40.7816C178.429 40.8983 179.168 40.9218 179.914 40.8521C180.569 40.7909 181.229 40.6578 181.894 40.4528C184.759 39.5321 186.301 37.3947 186.52 34.0406C186.629 32.1773 186.268 30.566 185.437 29.2068C184.759 28.1327 183.786 27.2558 182.518 26.5762C181.074 25.787 179.631 25.3376 178.187 25.228L177.695 40.7816ZM205.974 65.6739C208.074 66.2 210.72 66.6494 213.913 67.0221C220.278 67.7894 226.117 67.8442 231.432 67.1865C238.846 66.2877 244.696 64.0407 248.983 60.4455C249.519 59.9921 250.028 59.5187 250.511 59.0255C252.182 57.3187 253.537 55.3737 254.574 53.1906C255.854 50.4978 256.651 47.4425 256.966 44.0249C257.057 43.0397 257.108 42.0244 257.119 40.9789C257.226 39.8246 257.187 38.3888 257.002 36.6717C256.998 36.6279 256.993 36.5839 256.988 36.5397C256.835 34.9394 256.583 33.3939 256.233 31.9032C255.799 30.0304 255.224 28.2657 254.509 26.6092C254.504 26.5982 254.499 26.5872 254.495 26.5762C253.141 23.4399 251.368 20.7781 249.175 18.5909C244.562 13.9904 238.089 11.4896 229.759 11.0884C221.295 10.6061 213.487 11.2966 206.335 13.16L205.974 65.6739ZM231.432 29.9631C228.96 29.7001 226.664 29.8426 224.542 30.3906L223.394 48.7064C225.625 49.364 227.954 49.5284 230.382 49.1996C230.468 49.188 230.553 49.1756 230.637 49.1625C231.688 48.9997 232.643 48.7238 233.502 48.3348C234.265 47.989 234.953 47.5539 235.565 47.0293C237.293 45.5606 238.376 43.4561 238.813 40.7158C239.097 39.0717 239.01 37.3947 238.551 35.6848C238.135 34.1941 237.424 32.9664 236.418 32.0019C235.194 30.8619 233.531 30.1824 231.432 29.9631ZM260.289 68.7649L298.771 69.2253L298.64 11.9105L259.535 10.7596L259.024 24.6048L259.024 24.613L258.944 26.7735L280.76 26.346L280.498 32.824L269.213 32.8568L268.589 47.4239L280.236 46.5361L280.072 53.4415L260.749 53.3757L260.289 68.7649ZM323.781 67.614L332.541 56.8613L343.531 70.9352L362.886 60.9388L346.09 40.2226L362.263 20.3942L342.94 10.2334L332.573 23.5181L322.371 10.9569L301.506 17.0731L319.517 40.1897L302.917 61.3663L323.781 67.614Z" fill="white"/>
<path d="M373.205 71.8864C373.036 72.6073 373.142 73.2681 373.523 73.8689C373.905 74.4767 374.449 74.8442 375.156 74.9714C375.863 75.0986 376.527 74.9502 377.149 74.5262C377.764 74.1092 378.16 73.5367 378.336 72.8087C378.506 72.0878 378.4 71.427 378.018 70.8262C377.637 70.2184 377.092 69.8509 376.386 69.7236C375.679 69.5964 375.015 69.7448 374.393 70.1689C373.778 70.5859 373.382 71.1584 373.205 71.8864ZM393.126 67.7624C392.263 68.2995 391.309 68.5115 390.263 68.3985C389.097 68.2712 388.139 67.7906 387.39 66.9566C386.648 66.1297 386.333 65.1897 386.447 64.1366C386.56 63.0835 387.068 62.2319 387.973 61.5817C388.871 60.9244 389.906 60.6593 391.079 60.7865C391.956 60.8784 392.733 61.1894 393.412 61.7195L395.84 58.0089C394.221 56.4611 392.277 55.567 390.009 55.3267C387.351 55.044 384.987 55.6943 382.916 57.2774C381.941 58.0266 381.149 58.9207 380.541 59.9596C379.927 61.0339 379.552 62.1895 379.418 63.4263C379.283 64.6702 379.407 65.8823 379.789 67.0627C380.156 68.2076 380.743 69.2501 381.549 70.1901C382.34 71.116 383.287 71.8758 384.39 72.4694C385.535 73.0702 386.758 73.4413 388.058 73.5826C389.38 73.724 390.666 73.6109 391.917 73.2434C393.126 72.897 394.221 72.3422 395.203 71.5789L393.126 67.7624ZM401.024 64.6667C401.193 63.649 401.709 62.815 402.571 62.1647C403.448 61.5074 404.416 61.2212 405.476 61.306C406.544 61.3908 407.392 61.822 408.021 62.5994C408.664 63.3768 408.904 64.2709 408.742 65.2816C408.572 66.2993 408.052 67.1333 407.183 67.7836C406.314 68.4409 405.346 68.7271 404.278 68.6423C403.218 68.5504 402.367 68.1193 401.723 67.3489C401.094 66.5715 400.861 65.6774 401.024 64.6667ZM403.282 74.1339C405.96 74.3459 408.392 73.6286 410.576 71.9818C411.608 71.1973 412.463 70.2714 413.141 69.2042C413.834 68.1087 414.283 66.9319 414.488 65.6739C414.693 64.4229 414.633 63.2072 414.307 62.0269C413.996 60.8819 413.463 59.8465 412.707 58.9207C411.957 58.0019 411.039 57.2633 409.95 56.7049C408.826 56.1183 407.607 55.772 406.293 55.666C403.614 55.454 401.183 56.1713 398.999 57.8181C397.967 58.6026 397.115 59.5285 396.444 60.5957C395.744 61.6912 395.292 62.868 395.087 64.126C394.882 65.3699 394.942 66.5856 395.267 67.773C395.585 68.9179 396.122 69.9533 396.878 70.8792C397.635 71.798 398.55 72.5366 399.624 73.0949C400.748 73.6816 401.967 74.0279 403.282 74.1339ZM413.544 71.3139L419.672 55.1995L425.746 62.4722L432.076 55.0723L437.154 71.5895L430.74 73.7628L429.107 67.3701L425.545 71.9924L421.983 67.9956L419.735 73.8901L413.544 71.3139Z" fill="white"/>
<path d="M64.4066 103.573C64.4066 102.233 64.0922 101.199 63.4636 100.472C62.835 99.7272 62.0162 99.355 61.0071 99.355C60.4446 99.355 59.998 99.3798 59.6671 99.4294C59.3528 99.4791 59.1047 99.537 58.9227 99.6031V106.874C59.1543 107.089 59.4934 107.287 59.9401 107.469C60.3867 107.651 60.8499 107.742 61.3297 107.742C61.8756 107.742 62.3387 107.635 62.7192 107.419C63.1162 107.204 63.4388 106.915 63.687 106.551C63.9351 106.171 64.1171 105.732 64.2329 105.236C64.3487 104.723 64.4066 104.169 64.4066 103.573ZM66.5157 103.573C66.5157 104.45 66.3999 105.261 66.1683 106.005C65.9533 106.733 65.6307 107.362 65.2006 107.891C64.787 108.42 64.2742 108.834 63.6621 109.132C63.0501 109.429 62.3553 109.578 61.5778 109.578C60.9657 109.578 60.4281 109.504 59.9649 109.355C59.5017 109.206 59.1543 109.041 58.9227 108.859V113.4H56.8632V98.1391C57.3098 98.0068 57.8806 97.8745 58.5753 97.7421C59.2867 97.6098 60.0972 97.5436 61.0071 97.5436C61.8342 97.5436 62.5869 97.6842 63.2651 97.9654C63.9434 98.2467 64.5224 98.652 65.0021 99.1813C65.4818 99.6941 65.854 100.323 66.1187 101.067C66.3834 101.812 66.5157 102.647 66.5157 103.573ZM78.9226 103.549C78.9226 104.458 78.7902 105.285 78.5255 106.03C78.2774 106.758 77.9217 107.386 77.4586 107.916C76.9954 108.445 76.4412 108.859 75.796 109.156C75.1509 109.438 74.4478 109.578 73.6869 109.578C72.9425 109.578 72.2477 109.438 71.6025 109.156C70.9739 108.859 70.428 108.445 69.9648 107.916C69.5016 107.386 69.1377 106.758 68.873 106.03C68.6249 105.285 68.5008 104.458 68.5008 103.549C68.5008 102.639 68.6249 101.812 68.873 101.067C69.1377 100.323 69.5016 99.6941 69.9648 99.1813C70.428 98.652 70.9739 98.2467 71.6025 97.9654C72.2477 97.6677 72.9425 97.5188 73.6869 97.5188C74.4478 97.5188 75.1509 97.6677 75.796 97.9654C76.4412 98.2467 76.9954 98.652 77.4586 99.1813C77.9217 99.6941 78.2774 100.323 78.5255 101.067C78.7902 101.812 78.9226 102.639 78.9226 103.549ZM76.8134 103.549C76.8134 102.242 76.5322 101.216 75.9697 100.472C75.4073 99.7107 74.6463 99.3302 73.6869 99.3302C72.744 99.3302 71.9913 99.7107 71.4288 100.472C70.8829 101.216 70.61 102.242 70.61 103.549C70.61 104.839 70.8829 105.864 71.4288 106.625C71.9913 107.37 72.744 107.742 73.6869 107.742C74.6463 107.742 75.4073 107.37 75.9697 106.625C76.5322 105.864 76.8134 104.839 76.8134 103.549ZM88.4262 109.305C88.1781 108.743 87.963 108.23 87.7811 107.767C87.5991 107.304 87.4171 106.84 87.2352 106.377C87.0697 105.914 86.896 105.434 86.7141 104.938C86.5486 104.425 86.3501 103.846 86.1185 103.201C85.8869 103.846 85.6802 104.425 85.4982 104.938C85.3162 105.434 85.1343 105.914 84.9523 106.377C84.7869 106.84 84.6049 107.304 84.4064 107.767C84.2244 108.23 84.0094 108.743 83.7612 109.305H82.2228C81.7596 107.271 81.3709 105.261 81.0565 103.276C80.7588 101.274 80.5355 99.446 80.3866 97.7917H82.322C82.3717 98.4369 82.4213 99.0738 82.4709 99.7024C82.5371 100.314 82.6115 100.96 82.6942 101.638C82.777 102.316 82.8679 103.052 82.9672 103.846C83.083 104.64 83.2071 105.534 83.3394 106.526C83.6041 105.864 83.8274 105.285 84.0094 104.789C84.1913 104.293 84.3568 103.821 84.5056 103.375C84.6545 102.928 84.7951 102.473 84.9275 102.01C85.0764 101.547 85.2335 101.026 85.3989 100.447H86.9374C87.1028 101.026 87.2517 101.547 87.384 102.01C87.5164 102.473 87.657 102.928 87.8059 103.375C87.9548 103.821 88.1119 104.293 88.2773 104.789C88.4428 105.285 88.6495 105.856 88.8977 106.501C89.0466 105.592 89.1789 104.748 89.2947 103.97C89.4105 103.193 89.5097 102.465 89.5925 101.787C89.6752 101.092 89.7496 100.422 89.8158 99.7768C89.8819 99.1317 89.9398 98.47 89.9895 97.7917H91.8505C91.7678 98.6189 91.6685 99.5039 91.5527 100.447C91.4369 101.39 91.2963 102.357 91.1309 103.35C90.9655 104.343 90.7835 105.352 90.585 106.377C90.3865 107.386 90.1797 108.362 89.9647 109.305H88.4262ZM98.7487 97.5188C100.304 97.5188 101.503 98.0068 102.347 98.9828C103.19 99.9423 103.612 101.406 103.612 103.375V104.094H95.374C95.4568 105.285 95.8455 106.195 96.5403 106.824C97.2516 107.436 98.2442 107.742 99.5179 107.742C100.246 107.742 100.866 107.684 101.379 107.568C101.892 107.453 102.281 107.328 102.545 107.196L102.818 108.933C102.57 109.065 102.123 109.206 101.478 109.355C100.833 109.504 100.105 109.578 99.2946 109.578C98.3021 109.578 97.4253 109.429 96.6644 109.132C95.9199 108.817 95.2996 108.395 94.8033 107.866C94.3071 107.337 93.9349 106.708 93.6867 105.98C93.4386 105.236 93.3145 104.434 93.3145 103.573C93.3145 102.548 93.4717 101.654 93.786 100.893C94.1003 100.133 94.5138 99.5039 95.0267 99.0076C95.5395 98.5113 96.1185 98.1391 96.7636 97.891C97.4088 97.6429 98.0705 97.5188 98.7487 97.5188ZM101.528 102.432C101.528 101.456 101.271 100.687 100.759 100.124C100.246 99.5452 99.5676 99.2558 98.7239 99.2558C98.2442 99.2558 97.8058 99.3467 97.4088 99.5287C97.0283 99.7107 96.6974 99.9505 96.4162 100.248C96.135 100.546 95.9117 100.885 95.7463 101.266C95.5808 101.646 95.4733 102.035 95.4237 102.432H101.528ZM107.384 109.305V98.4121C109.071 97.8331 110.775 97.5436 112.495 97.5436C113.025 97.5436 113.529 97.5684 114.009 97.618C114.489 97.6511 115.018 97.7338 115.597 97.8662L115.225 99.6776C114.696 99.5287 114.224 99.4377 113.811 99.4046C113.414 99.355 112.975 99.3302 112.495 99.3302C111.486 99.3302 110.461 99.4708 109.419 99.752V109.305H107.384ZM123.562 97.5188C125.117 97.5188 126.317 98.0068 127.16 98.9828C128.004 99.9423 128.426 101.406 128.426 103.375V104.094H120.188C120.27 105.285 120.659 106.195 121.354 106.824C122.065 107.436 123.058 107.742 124.332 107.742C125.059 107.742 125.68 107.684 126.193 107.568C126.705 107.453 127.094 107.328 127.359 107.196L127.632 108.933C127.384 109.065 126.937 109.206 126.292 109.355C125.647 109.504 124.919 109.578 124.108 109.578C123.116 109.578 122.239 109.429 121.478 109.132C120.734 108.817 120.113 108.395 119.617 107.866C119.121 107.337 118.749 106.708 118.5 105.98C118.252 105.236 118.128 104.434 118.128 103.573C118.128 102.548 118.285 101.654 118.6 100.893C118.914 100.133 119.328 99.5039 119.84 99.0076C120.353 98.5113 120.932 98.1391 121.577 97.891C122.222 97.6429 122.884 97.5188 123.562 97.5188ZM126.342 102.432C126.342 101.456 126.085 100.687 125.572 100.124C125.059 99.5452 124.381 99.2558 123.538 99.2558C123.058 99.2558 122.619 99.3467 122.222 99.5287C121.842 99.7107 121.511 99.9505 121.23 100.248C120.949 100.546 120.725 100.885 120.56 101.266C120.395 101.646 120.287 102.035 120.237 102.432H126.342ZM138.128 100.223C137.896 100.008 137.557 99.8099 137.111 99.628C136.664 99.4294 136.201 99.3302 135.721 99.3302C135.175 99.3302 134.704 99.4377 134.307 99.6528C133.926 99.8678 133.612 100.166 133.364 100.546C133.116 100.91 132.934 101.357 132.818 101.886C132.702 102.399 132.644 102.953 132.644 103.549C132.644 104.888 132.959 105.922 133.587 106.65C134.216 107.378 135.035 107.742 136.044 107.742C136.557 107.742 136.987 107.717 137.334 107.668C137.698 107.618 137.963 107.568 138.128 107.519V100.223ZM138.128 92.4568L140.188 92.1094V108.983C139.741 109.115 139.17 109.247 138.475 109.38C137.781 109.512 136.97 109.578 136.044 109.578C135.217 109.578 134.464 109.438 133.786 109.156C133.107 108.875 132.528 108.478 132.049 107.965C131.569 107.436 131.197 106.799 130.932 106.055C130.667 105.31 130.535 104.475 130.535 103.549C130.535 102.655 130.643 101.845 130.858 101.117C131.089 100.372 131.42 99.7355 131.85 99.2061C132.28 98.6768 132.793 98.2632 133.389 97.9654C134.001 97.6677 134.695 97.5188 135.473 97.5188C136.085 97.5188 136.623 97.5932 137.086 97.7421C137.549 97.891 137.896 98.0482 138.128 98.2136V92.4568ZM158.178 98.2136C158.426 98.0647 158.781 97.9158 159.244 97.7669C159.724 97.6015 160.254 97.5188 160.833 97.5188C161.61 97.5188 162.305 97.6677 162.917 97.9654C163.529 98.2632 164.042 98.6768 164.455 99.2061C164.885 99.7355 165.208 100.372 165.423 101.117C165.655 101.845 165.771 102.655 165.771 103.549C165.771 104.475 165.638 105.31 165.373 106.055C165.109 106.799 164.737 107.436 164.257 107.965C163.777 108.478 163.198 108.875 162.52 109.156C161.842 109.438 161.089 109.578 160.262 109.578C159.352 109.578 158.541 109.512 157.83 109.38C157.119 109.247 156.548 109.115 156.118 108.983V92.4568L158.178 92.1094V98.2136ZM158.178 107.519C158.492 107.601 158.806 107.668 159.12 107.717C159.435 107.75 159.733 107.767 160.014 107.767C161.155 107.767 162.048 107.419 162.694 106.725C163.339 106.013 163.661 104.955 163.661 103.549C163.661 102.953 163.603 102.399 163.488 101.886C163.372 101.357 163.19 100.91 162.942 100.546C162.694 100.166 162.371 99.8678 161.974 99.6528C161.594 99.4377 161.13 99.3302 160.584 99.3302C160.105 99.3302 159.642 99.4294 159.195 99.628C158.748 99.8099 158.409 100.008 158.178 100.223V107.519ZM168.029 111.464C168.177 111.547 168.384 111.613 168.649 111.663C168.93 111.712 169.187 111.737 169.418 111.737C170.229 111.737 170.857 111.555 171.304 111.191C171.767 110.844 172.189 110.265 172.569 109.454C171.643 107.701 170.775 105.823 169.964 103.821C169.153 101.803 168.483 99.7934 167.954 97.7917H170.187C170.353 98.4534 170.543 99.173 170.758 99.9505C170.99 100.711 171.246 101.497 171.527 102.308C171.808 103.118 172.106 103.937 172.421 104.764C172.751 105.575 173.099 106.352 173.463 107.097C173.727 106.336 173.976 105.583 174.207 104.839C174.439 104.094 174.654 103.35 174.852 102.606C175.051 101.845 175.249 101.075 175.448 100.298C175.646 99.5039 175.853 98.6685 176.068 97.7917H178.202C177.673 99.9423 177.077 102.027 176.416 104.045C175.77 106.063 175.076 107.932 174.331 109.653C174.05 110.314 173.744 110.885 173.413 111.365C173.099 111.845 172.751 112.242 172.371 112.556C171.99 112.87 171.56 113.102 171.081 113.251C170.601 113.4 170.055 113.474 169.443 113.474C169.129 113.474 168.781 113.433 168.401 113.35C168.037 113.267 167.789 113.193 167.656 113.127L168.029 111.464Z" fill="white"/>
<path fill-rule="evenodd" clip-rule="evenodd" d="M237.579 100.805L224.694 87.5044V97.2506L211.899 107.003L224.694 107.009V114.112L237.579 100.805Z" fill="white"/>
<path fill-rule="evenodd" clip-rule="evenodd" d="M192.154 100.805L205.04 114.112V104.465L217.745 94.7062L205.046 94.7V87.4982L192.154 100.805Z" fill="white"/>
<path d="M257.42 108.642H247.533V105.709L253.193 99.1851H247.677V96.3018H257.318V99.0865L251.49 105.734H257.42V108.642Z" fill="white"/>
<path d="M270.911 96.3017L266.126 101.495L271.007 108.642H267.049L263.89 103.929L262.552 105.383V108.642H259.321V90.486H262.552V100.898L266.684 96.3079H270.911V96.3017Z" fill="white"/>
<path d="M284.965 95.1005L281.955 96.0554C281.841 95.4208 281.536 94.8417 281.032 94.3242C280.528 93.8067 279.791 93.548 278.819 93.548C278.028 93.548 277.38 93.7759 276.877 94.2257C276.373 94.6631 276.121 95.1867 276.121 95.8028C276.121 96.8871 276.745 97.5586 277.992 97.8112L280.396 98.2856C281.919 98.5874 283.1 99.2158 283.946 100.165C284.791 101.119 285.211 102.241 285.211 103.528C285.211 105.001 284.647 106.288 283.508 107.391C282.393 108.475 280.882 109.024 278.987 109.024C277.902 109.024 276.925 108.857 276.049 108.525C275.174 108.192 274.472 107.748 273.939 107.194C273.405 106.627 272.985 106.03 272.674 105.413C272.38 104.779 272.206 104.126 272.14 103.454L275.252 102.604C275.33 103.559 275.69 104.354 276.319 104.988C276.967 105.623 277.866 105.943 279.017 105.943C279.893 105.943 280.57 105.74 281.056 105.34C281.56 104.939 281.811 104.409 281.811 103.762C281.811 103.245 281.625 102.801 281.254 102.432C280.9 102.05 280.384 101.791 279.725 101.655L277.32 101.156C275.929 100.855 274.826 100.263 274.017 99.376C273.207 98.4889 272.805 97.3861 272.805 96.0677C272.805 94.4967 273.387 93.1722 274.556 92.1064C275.738 91.0344 277.153 90.4984 278.807 90.4984C279.797 90.4984 280.678 90.6401 281.458 90.9235C282.237 91.2069 282.861 91.595 283.328 92.0756C283.796 92.5438 284.162 93.0305 284.42 93.5295C284.665 94.0224 284.851 94.546 284.965 95.1005Z" fill="white"/>
<path d="M290.649 113.509H287.226L290.044 107.089L284.965 96.3018H288.587L291.771 103.522L294.709 96.3018H298.156L290.649 113.509Z" fill="white"/>
<path d="M302.617 101.545V108.642H299.385V96.3018H302.521V97.8296C302.863 97.2259 303.349 96.77 303.978 96.4496C304.608 96.1293 305.273 95.9753 305.969 95.9753C307.378 95.9753 308.445 96.4373 309.177 97.3553C309.92 98.2609 310.292 99.4314 310.292 100.867V108.642H307.06V101.446C307.06 100.713 306.874 100.115 306.503 99.6655C306.149 99.2158 305.597 98.9878 304.848 98.9878C304.17 98.9878 303.625 99.2281 303.223 99.7148C302.821 100.201 302.617 100.811 302.617 101.545Z" fill="white"/>
<path d="M318.213 99.0126C317.355 99.0126 316.636 99.3206 316.048 99.9428C315.466 100.559 315.173 101.403 315.173 102.475C315.173 103.547 315.466 104.397 316.048 105.032C316.648 105.648 317.373 105.962 318.237 105.962C318.998 105.962 319.604 105.759 320.059 105.358C320.515 104.939 320.821 104.446 320.983 103.88L323.825 104.859C323.531 105.999 322.901 106.972 321.93 107.792C320.959 108.611 319.73 109.018 318.237 109.018C316.456 109.018 314.957 108.401 313.74 107.163C312.54 105.906 311.941 104.348 311.941 102.475C311.941 100.584 312.534 99.0249 313.716 97.7866C314.915 96.5483 316.39 95.9322 318.135 95.9322C319.658 95.9322 320.905 96.3388 321.876 97.1582C322.847 97.9591 323.471 98.9386 323.747 100.091L320.857 101.095C320.473 99.7026 319.592 99.0126 318.213 99.0126Z" fill="white"/>
</svg>
