<svg width="349" height="118" viewBox="0 0 349 118" fill="none" xmlns="http://www.w3.org/2000/svg">
<path d="M346.84 24.8097C346.84 27.9411 347.013 27.9411 347.013 31.0616C347.013 34.1822 347.241 34.193 347.241 37.3136C347.241 40.4342 346.829 40.445 346.829 43.5656C346.829 46.6861 346.428 46.6861 346.428 49.8175C346.428 52.9489 347.078 52.9489 347.078 56.0695C347.078 59.19 346.547 59.2008 346.547 62.3214C346.547 65.442 346.45 65.4528 346.45 68.5734C346.45 71.6939 346.45 71.7047 346.45 74.8253C346.45 77.9459 346.775 77.9567 346.775 81.0881C346.775 84.2195 347.208 84.2195 347.208 87.34C347.208 90.4606 346.764 90.4714 346.764 93.6028C346.764 96.7342 346.797 96.7342 346.797 99.8656C346.797 102.997 347.1 102.997 347.1 106.128C347.1 108.707 345.767 111.145 344.077 112.825C342.387 114.504 339.949 115.328 337.381 115.328C334.119 115.328 334.119 115.273 330.869 115.273C327.618 115.273 327.607 115.273 324.357 115.273C321.106 115.273 321.095 115.62 317.845 115.62C314.594 115.62 314.583 115.501 311.333 115.501C308.082 115.501 308.071 115.815 304.821 115.815C301.57 115.815 301.559 115.057 298.309 115.057C295.058 115.057 295.047 115.533 291.797 115.533C288.546 115.533 288.535 115.078 285.285 115.078C282.034 115.078 282.023 115.913 278.773 115.913C275.522 115.913 275.511 115.967 272.261 115.967C269.01 115.967 268.999 115.88 265.749 115.88C262.498 115.88 262.487 115.956 259.237 115.956C255.986 115.956 255.975 115.371 252.725 115.371C249.474 115.371 249.463 115.848 246.213 115.848C242.962 115.848 242.951 115.761 239.701 115.761C236.45 115.761 236.439 115.425 233.189 115.425C229.938 115.425 229.927 115.1 226.677 115.1C223.426 115.1 223.426 115.869 220.165 115.869C216.903 115.869 216.914 115.544 213.653 115.544C210.391 115.544 210.402 115.501 207.141 115.501C203.879 115.501 203.879 115.566 200.629 115.566C197.378 115.566 197.378 115.913 194.117 115.913C190.855 115.913 190.866 115.057 187.605 115.057C184.343 115.057 184.343 115.284 181.093 115.284C177.842 115.284 177.831 115.1 174.581 115.1C171.33 115.1 171.319 115.425 168.069 115.425C164.818 115.425 164.807 115.653 161.557 115.653C158.306 115.653 158.295 115.284 155.045 115.284C151.794 115.284 151.783 115.609 148.533 115.609C145.282 115.609 145.271 115.328 142.021 115.328C138.77 115.328 138.759 115.436 135.509 115.436C132.258 115.436 132.247 115.241 128.997 115.241C125.746 115.241 125.735 115.468 122.485 115.468C119.234 115.468 119.223 115.783 115.973 115.783C112.722 115.783 112.711 115.696 109.461 115.696C106.21 115.696 106.199 115.696 102.938 115.696C99.6766 115.696 99.6766 115.609 96.4152 115.609C93.1538 115.609 93.1538 115.089 89.8924 115.089C86.6309 115.089 86.6309 114.916 83.3695 114.916C80.1081 114.916 80.1081 114.916 76.8467 114.916C73.5853 114.916 73.5853 115.317 70.3347 115.317C67.0841 115.317 67.0733 115.284 63.8227 115.284C60.5721 115.284 60.5613 115.967 57.2999 115.967C54.0384 115.967 54.0384 115.512 50.777 115.512C47.5156 115.512 47.5156 114.97 44.2542 114.97C40.9928 114.97 40.9928 115.956 37.7314 115.956C34.4699 115.956 34.4699 115.198 31.2194 115.198C27.9688 115.198 27.9579 114.992 24.6965 114.992C21.4351 114.992 21.4351 115.36 18.1737 115.36C14.9123 115.36 14.9123 115.891 11.6509 115.891C9.07207 115.891 6.84001 114.298 5.1497 112.608C3.4594 110.918 2.28919 108.686 2.28919 106.107C2.28919 102.975 2.07249 102.975 2.07249 99.8548C2.07249 96.7342 2.74427 96.7234 2.74427 93.6028C2.74427 90.4823 2.02915 90.4714 2.02915 87.3509C2.02915 84.2303 2.01831 84.2303 2.01831 81.0989C2.01831 77.9675 2.80929 77.9675 2.80929 74.847C2.80929 71.7264 2.25669 71.7156 2.25669 68.595C2.25669 65.4745 2.06165 65.4636 2.06165 62.3431C2.06165 59.2225 2.36504 59.2117 2.36504 56.0911C2.36504 52.9706 2.23502 52.9597 2.23502 49.8283C2.23502 46.6969 2.18084 46.6969 2.18084 43.5764C2.18084 40.4558 2.67926 40.445 2.67926 37.3136C2.67926 34.1822 2.77678 34.1822 2.77678 31.0508C2.77678 27.9194 2.3542 27.9194 2.3542 24.788" fill="black"/>
<path d="M346.84 24.8097C346.84 27.9411 347.013 27.9411 347.013 31.0616C347.013 34.1822 347.241 34.193 347.241 37.3136C347.241 40.4342 346.829 40.445 346.829 43.5656C346.829 46.6861 346.428 46.6861 346.428 49.8175C346.428 52.9489 347.078 52.9489 347.078 56.0695C347.078 59.19 346.547 59.2008 346.547 62.3214C346.547 65.442 346.45 65.4528 346.45 68.5734C346.45 71.6939 346.45 71.7047 346.45 74.8253C346.45 77.9459 346.775 77.9567 346.775 81.0881C346.775 84.2195 347.208 84.2195 347.208 87.34C347.208 90.4606 346.764 90.4714 346.764 93.6028C346.764 96.7342 346.797 96.7342 346.797 99.8656C346.797 102.997 347.1 102.997 347.1 106.128C347.1 108.707 345.767 111.145 344.077 112.825C342.387 114.504 339.949 115.328 337.381 115.328C334.119 115.328 334.119 115.273 330.869 115.273C327.618 115.273 327.607 115.273 324.357 115.273C321.106 115.273 321.095 115.62 317.845 115.62C314.594 115.62 314.583 115.501 311.333 115.501C308.082 115.501 308.071 115.815 304.821 115.815C301.57 115.815 301.559 115.057 298.309 115.057C295.058 115.057 295.047 115.533 291.797 115.533C288.546 115.533 288.535 115.078 285.285 115.078C282.034 115.078 282.023 115.913 278.773 115.913C275.522 115.913 275.511 115.967 272.261 115.967C269.01 115.967 268.999 115.88 265.749 115.88C262.498 115.88 262.487 115.956 259.237 115.956C255.986 115.956 255.975 115.371 252.725 115.371C249.474 115.371 249.463 115.848 246.213 115.848C242.962 115.848 242.951 115.761 239.701 115.761C236.45 115.761 236.439 115.425 233.189 115.425C229.938 115.425 229.927 115.1 226.677 115.1C223.426 115.1 223.426 115.869 220.165 115.869C216.903 115.869 216.914 115.544 213.653 115.544C210.391 115.544 210.402 115.501 207.141 115.501C203.879 115.501 203.879 115.566 200.629 115.566C197.378 115.566 197.378 115.913 194.117 115.913C190.855 115.913 190.866 115.057 187.605 115.057C184.343 115.057 184.343 115.284 181.093 115.284C177.842 115.284 177.831 115.1 174.581 115.1C171.33 115.1 171.319 115.425 168.069 115.425C164.818 115.425 164.807 115.653 161.557 115.653C158.306 115.653 158.295 115.284 155.045 115.284C151.794 115.284 151.783 115.609 148.533 115.609C145.282 115.609 145.271 115.328 142.021 115.328C138.77 115.328 138.759 115.436 135.509 115.436C132.258 115.436 132.247 115.241 128.997 115.241C125.746 115.241 125.735 115.468 122.485 115.468C119.234 115.468 119.223 115.783 115.973 115.783C112.722 115.783 112.711 115.696 109.461 115.696C106.21 115.696 106.199 115.696 102.938 115.696C99.6766 115.696 99.6766 115.609 96.4152 115.609C93.1538 115.609 93.1538 115.089 89.8924 115.089C86.6309 115.089 86.6309 114.916 83.3695 114.916C80.1081 114.916 80.1081 114.916 76.8467 114.916C73.5853 114.916 73.5853 115.317 70.3347 115.317C67.0841 115.317 67.0733 115.284 63.8227 115.284C60.5721 115.284 60.5613 115.967 57.2999 115.967C54.0384 115.967 54.0384 115.512 50.777 115.512C47.5156 115.512 47.5156 114.97 44.2542 114.97C40.9928 114.97 40.9928 115.956 37.7314 115.956C34.4699 115.956 34.4699 115.198 31.2194 115.198C27.9688 115.198 27.9579 114.992 24.6965 114.992C21.4351 114.992 21.4351 115.36 18.1737 115.36C14.9123 115.36 14.9123 115.891 11.6509 115.891C9.07207 115.891 6.84001 114.298 5.1497 112.608C3.4594 110.918 2.28919 108.686 2.28919 106.107C2.28919 102.975 2.07249 102.975 2.07249 99.8548C2.07249 96.7342 2.74427 96.7234 2.74427 93.6028C2.74427 90.4823 2.02915 90.4714 2.02915 87.3509C2.02915 84.2303 2.01831 84.2303 2.01831 81.0989C2.01831 77.9675 2.80929 77.9675 2.80929 74.847C2.80929 71.7264 2.25669 71.7156 2.25669 68.595C2.25669 65.4745 2.06165 65.4636 2.06165 62.3431C2.06165 59.2225 2.36504 59.2117 2.36504 56.0911C2.36504 52.9706 2.23502 52.9597 2.23502 49.8283C2.23502 46.6969 2.18084 46.6969 2.18084 43.5764C2.18084 40.4558 2.67926 40.445 2.67926 37.3136C2.67926 34.1822 2.77678 34.1822 2.77678 31.0508C2.77678 27.9194 2.3542 27.9194 2.3542 24.788" stroke="black" stroke-width="3.25058" stroke-linecap="round" stroke-linejoin="round"/>
<path d="M346.558 92.9851C346.558 95.5639 345.561 97.7852 343.882 99.4755C342.202 101.166 339.97 101.87 337.392 101.87C334.13 101.87 334.13 102.314 330.88 102.314C327.629 102.314 327.618 101.957 324.368 101.957C321.117 101.957 321.106 102.325 317.856 102.325C314.605 102.325 314.594 102.704 311.344 102.704C308.093 102.704 308.082 102.607 304.832 102.607C301.581 102.607 301.57 102.022 298.32 102.022C295.069 102.022 295.058 102.358 291.808 102.358C288.557 102.358 288.546 101.968 285.296 101.968C282.045 101.968 282.034 102.585 278.784 102.585C275.533 102.585 275.522 102.759 272.272 102.759C269.021 102.759 269.01 102.455 265.76 102.455C262.509 102.455 262.498 101.924 259.248 101.924C255.997 101.924 255.986 101.827 252.736 101.827C249.485 101.827 249.474 102.195 246.224 102.195C242.973 102.195 242.962 102.694 239.712 102.694C236.461 102.694 236.45 102.022 233.2 102.022C229.949 102.022 229.938 102.271 226.688 102.271C223.437 102.271 223.437 101.946 220.176 101.946C216.914 101.946 216.925 102.206 213.664 102.206C210.402 102.206 210.413 102.011 207.152 102.011C203.89 102.011 203.89 101.946 200.64 101.946C197.389 101.946 197.389 102.585 194.128 102.585C190.866 102.585 190.877 101.957 187.616 101.957C184.354 101.957 184.354 102.672 181.104 102.672C177.853 102.672 177.842 102.368 174.592 102.368C171.341 102.368 171.33 102.499 168.08 102.499C164.829 102.499 164.818 102.423 161.568 102.423C158.317 102.423 158.306 102.509 155.056 102.509C151.805 102.509 151.794 101.892 148.544 101.892C145.293 101.892 145.282 102.022 142.032 102.022C138.781 102.022 138.77 102.217 135.52 102.217C132.269 102.217 132.258 102.314 129.008 102.314C125.757 102.314 125.746 101.881 122.496 101.881C119.245 101.881 119.234 102.325 115.984 102.325C112.733 102.325 112.722 101.957 109.472 101.957C106.221 101.957 106.21 102.683 102.949 102.683C99.6874 102.683 99.6874 102.152 96.426 102.152C93.1646 102.152 93.1646 101.805 89.9032 101.805C86.6418 101.805 86.6417 102.119 83.3803 102.119C80.1189 102.119 80.1189 102.098 76.8575 102.098C73.5961 102.098 73.5961 102.639 70.3455 102.639C67.0949 102.639 67.0841 102.022 63.8335 102.022C60.5829 102.022 60.5721 102.401 57.3107 102.401C54.0493 102.401 54.0493 102.509 50.7878 102.509C47.5264 102.509 47.5264 102.13 44.265 102.13C41.0036 102.13 41.0036 102.444 37.7422 102.444C34.4807 102.444 34.4808 102.195 31.2302 102.195C27.9796 102.195 27.9688 102.813 24.7073 102.813C21.4459 102.813 21.4459 102.238 18.1845 102.238C14.9231 102.238 14.9231 102.325 11.6617 102.325C9.08287 102.325 6.90498 101.101 5.21468 99.4105C3.52438 97.7202 2.45169 95.5423 2.45169 92.9635C2.45169 89.8321 2.77675 89.8321 2.77675 86.7115C2.77675 83.591 2.64672 83.5801 2.64672 80.4596C2.64672 77.339 1.92076 77.3282 1.92076 74.2076C1.92076 71.0871 2.02911 71.0871 2.02911 67.9557C2.02911 64.8243 2.19164 64.8243 2.19164 61.7037C2.19164 58.5832 2.24582 58.5723 2.24582 55.4518C2.24582 52.3312 2.52753 52.3204 2.52753 49.1998C2.52753 46.0793 2.45169 46.0684 2.45169 42.9479C2.45169 39.8273 1.82324 39.8165 1.82324 36.6851C1.82324 33.5537 1.83408 33.5537 1.83408 30.4331C1.83408 27.3126 1.83408 27.3017 1.83408 24.1703C1.83408 21.0389 2.83092 21.0389 2.83092 17.9075C2.83092 14.7762 2.1483 14.7762 2.1483 11.6448C2.1483 9.06597 3.6219 6.98559 5.3122 5.29529C7.0025 3.60499 9.08287 2.83569 11.6617 2.83569C14.9231 2.83569 14.9231 2.5648 18.1737 2.5648C21.4242 2.5648 21.4351 2.22891 24.6857 2.22891C27.9362 2.22891 27.9471 2.01221 31.1977 2.01221C34.4482 2.01221 34.4591 2.82485 37.7097 2.82485C40.9602 2.82485 40.9711 2.749 44.2217 2.749C47.4722 2.749 47.4831 2.42395 50.7337 2.42395C53.9842 2.42395 53.9951 2.66232 57.2457 2.66232C60.4962 2.66232 60.5071 1.91469 63.7577 1.91469C67.0082 1.91469 67.0191 2.81402 70.2697 2.81402C73.5202 2.81402 73.5311 2.04471 76.7817 2.04471C80.0322 2.04471 80.0431 2.01221 83.2937 2.01221C86.5442 2.01221 86.5551 2.72733 89.8056 2.72733C93.0562 2.72733 93.0671 2.72733 96.3176 2.72733C99.5682 2.72733 99.5791 2.46729 102.83 2.46729C106.08 2.46729 106.091 1.90385 109.342 1.90385C112.592 1.90385 112.603 2.28309 115.854 2.28309C119.104 2.28309 119.115 2.54313 122.366 2.54313C125.616 2.54313 125.616 2.10972 128.878 2.10972C132.139 2.10972 132.128 2.5323 135.39 2.5323C138.651 2.5323 138.64 2.39144 141.902 2.39144C145.163 2.39144 145.163 2.44562 148.414 2.44562C151.664 2.44562 151.664 1.88218 154.926 1.88218C158.187 1.88218 158.176 2.04471 161.438 2.04471C164.699 2.04471 164.699 1.95803 167.95 1.95803C171.2 1.95803 171.211 2.13139 174.462 2.13139C177.712 2.13139 177.723 2.65149 180.974 2.65149C184.224 2.65149 184.235 2.25058 187.486 2.25058C190.736 2.25058 190.747 1.81717 193.998 1.81717C197.248 1.81717 197.259 2.60815 200.51 2.60815C203.76 2.60815 203.771 2.25058 207.022 2.25058C210.272 2.25058 210.283 2.82485 213.534 2.82485C216.784 2.82485 216.795 2.75984 220.046 2.75984C223.296 2.75984 223.307 2.5323 226.558 2.5323C229.808 2.5323 229.819 2.79235 233.07 2.79235C236.32 2.79235 236.331 2.85736 239.582 2.85736C242.832 2.85736 242.843 2.47812 246.104 2.47812C249.366 2.47812 249.366 2.08805 252.627 2.08805C255.889 2.08805 255.889 2.33726 259.15 2.33726C262.412 2.33726 262.412 1.99054 265.673 1.99054C268.934 1.99054 268.934 2.40228 272.196 2.40228C275.457 2.40228 275.457 2.19641 278.708 2.19641C281.958 2.19641 281.969 2.19641 285.22 2.19641C288.47 2.19641 288.481 2.62982 291.743 2.62982C295.004 2.62982 295.004 2.05555 298.265 2.05555C301.527 2.05555 301.527 2.12056 304.788 2.12056C308.05 2.12056 308.05 1.80634 311.311 1.80634C314.573 1.80634 314.573 2.09889 317.823 2.09889C321.074 2.09889 321.085 2.66232 324.346 2.66232C327.607 2.66232 327.607 1.95803 330.869 1.95803C334.13 1.95803 334.13 2.59731 337.392 2.59731C339.97 2.59731 342.246 3.42079 343.936 5.11109C345.626 6.8014 347.057 9.0768 347.057 11.6556C347.057 14.787 346.97 14.787 346.97 17.9075C346.97 21.0281 346.385 21.0389 346.385 24.1595C346.385 27.2801 346.526 27.2909 346.526 30.4115C346.526 33.532 346.851 33.532 346.851 36.6634C346.851 39.7948 346.374 39.7948 346.374 42.9154C346.374 46.0359 346.482 46.0467 346.482 49.1673C346.482 52.2879 347.002 52.2987 347.002 55.4193C347.002 58.5398 347.219 58.5506 347.219 61.6712C347.219 64.7918 346.807 64.8026 346.807 67.934C346.807 71.0654 347.241 71.0654 347.241 74.1859C347.241 77.3065 346.363 77.3173 346.363 80.4487C346.363 83.5801 346.818 83.5801 346.764 86.7115C346.71 89.8429 346.547 89.8429 346.547 92.9743L346.558 92.9851Z" fill="white"/>
<path d="M346.558 92.9851C346.558 95.5639 345.561 97.7852 343.882 99.4755C342.202 101.166 339.97 101.87 337.392 101.87C334.13 101.87 334.13 102.314 330.88 102.314C327.629 102.314 327.618 101.957 324.368 101.957C321.117 101.957 321.106 102.325 317.856 102.325C314.605 102.325 314.594 102.704 311.344 102.704C308.093 102.704 308.082 102.607 304.832 102.607C301.581 102.607 301.57 102.022 298.32 102.022C295.069 102.022 295.058 102.358 291.808 102.358C288.557 102.358 288.546 101.968 285.296 101.968C282.045 101.968 282.034 102.585 278.784 102.585C275.533 102.585 275.522 102.759 272.272 102.759C269.021 102.759 269.01 102.455 265.76 102.455C262.509 102.455 262.498 101.924 259.248 101.924C255.997 101.924 255.986 101.827 252.736 101.827C249.485 101.827 249.474 102.195 246.224 102.195C242.973 102.195 242.962 102.694 239.712 102.694C236.461 102.694 236.45 102.022 233.2 102.022C229.949 102.022 229.938 102.271 226.688 102.271C223.437 102.271 223.437 101.946 220.176 101.946C216.914 101.946 216.925 102.206 213.664 102.206C210.402 102.206 210.413 102.011 207.152 102.011C203.89 102.011 203.89 101.946 200.64 101.946C197.389 101.946 197.389 102.585 194.128 102.585C190.866 102.585 190.877 101.957 187.616 101.957C184.354 101.957 184.354 102.672 181.104 102.672C177.853 102.672 177.842 102.368 174.592 102.368C171.341 102.368 171.33 102.499 168.08 102.499C164.829 102.499 164.818 102.423 161.568 102.423C158.317 102.423 158.306 102.509 155.056 102.509C151.805 102.509 151.794 101.892 148.544 101.892C145.293 101.892 145.282 102.022 142.032 102.022C138.781 102.022 138.77 102.217 135.52 102.217C132.269 102.217 132.258 102.314 129.008 102.314C125.757 102.314 125.746 101.881 122.496 101.881C119.245 101.881 119.234 102.325 115.984 102.325C112.733 102.325 112.722 101.957 109.472 101.957C106.221 101.957 106.21 102.683 102.949 102.683C99.6874 102.683 99.6874 102.152 96.426 102.152C93.1646 102.152 93.1646 101.805 89.9032 101.805C86.6418 101.805 86.6417 102.119 83.3803 102.119C80.1189 102.119 80.1189 102.098 76.8575 102.098C73.5961 102.098 73.5961 102.639 70.3455 102.639C67.0949 102.639 67.0841 102.022 63.8335 102.022C60.5829 102.022 60.5721 102.401 57.3107 102.401C54.0493 102.401 54.0493 102.509 50.7878 102.509C47.5264 102.509 47.5264 102.13 44.265 102.13C41.0036 102.13 41.0036 102.444 37.7422 102.444C34.4808 102.444 34.4808 102.195 31.2302 102.195C27.9796 102.195 27.9688 102.813 24.7073 102.813C21.4459 102.813 21.4459 102.238 18.1845 102.238C14.9231 102.238 14.9231 102.325 11.6617 102.325C9.08287 102.325 6.90498 101.101 5.21468 99.4105C3.52438 97.7202 2.45169 95.5423 2.45169 92.9635C2.45169 89.8321 2.77675 89.8321 2.77675 86.7115C2.77675 83.591 2.64672 83.5801 2.64672 80.4596C2.64672 77.339 1.92076 77.3282 1.92076 74.2076C1.92076 71.0871 2.02911 71.0871 2.02911 67.9557C2.02911 64.8243 2.19164 64.8243 2.19164 61.7037C2.19164 58.5832 2.24582 58.5723 2.24582 55.4518C2.24582 52.3312 2.52753 52.3204 2.52753 49.1998C2.52753 46.0793 2.45169 46.0684 2.45169 42.9479C2.45169 39.8273 1.82324 39.8165 1.82324 36.6851C1.82324 33.5537 1.83408 33.5537 1.83408 30.4331C1.83408 27.3126 1.83408 27.3017 1.83408 24.1703C1.83408 21.0389 2.83092 21.0389 2.83092 17.9076C2.83092 14.7762 2.1483 14.7762 2.1483 11.6448C2.1483 9.06597 3.6219 6.9856 5.3122 5.29529C7.0025 3.60499 9.08287 2.83569 11.6617 2.83569C14.9231 2.83569 14.9231 2.5648 18.1737 2.5648C21.4242 2.5648 21.4351 2.22891 24.6857 2.22891C27.9362 2.22891 27.9471 2.01221 31.1977 2.01221C34.4482 2.01221 34.4591 2.82485 37.7097 2.82485C40.9602 2.82485 40.9711 2.749 44.2217 2.749C47.4722 2.749 47.4831 2.42395 50.7337 2.42395C53.9842 2.42395 53.9951 2.66232 57.2457 2.66232C60.4962 2.66232 60.5071 1.91469 63.7577 1.91469C67.0082 1.91469 67.0191 2.81402 70.2697 2.81402C73.5202 2.81402 73.5311 2.04471 76.7817 2.04471C80.0322 2.04471 80.0431 2.01221 83.2937 2.01221C86.5442 2.01221 86.5551 2.72733 89.8056 2.72733C93.0562 2.72733 93.0671 2.72733 96.3176 2.72733C99.5682 2.72733 99.5791 2.46729 102.83 2.46729C106.08 2.46729 106.091 1.90385 109.342 1.90385C112.592 1.90385 112.603 2.28309 115.854 2.28309C119.104 2.28309 119.115 2.54313 122.366 2.54313C125.616 2.54313 125.616 2.10972 128.878 2.10972C132.139 2.10972 132.128 2.5323 135.39 2.5323C138.651 2.5323 138.64 2.39144 141.902 2.39144C145.163 2.39144 145.163 2.44562 148.414 2.44562C151.664 2.44562 151.664 1.88218 154.926 1.88218C158.187 1.88218 158.176 2.04471 161.438 2.04471C164.699 2.04471 164.699 1.95803 167.95 1.95803C171.2 1.95803 171.211 2.13139 174.462 2.13139C177.712 2.13139 177.723 2.65149 180.974 2.65149C184.224 2.65149 184.235 2.25058 187.486 2.25058C190.736 2.25058 190.747 1.81717 193.998 1.81717C197.248 1.81717 197.259 2.60815 200.51 2.60815C203.76 2.60815 203.771 2.25058 207.022 2.25058C210.272 2.25058 210.283 2.82485 213.534 2.82485C216.784 2.82485 216.795 2.75984 220.046 2.75984C223.296 2.75984 223.307 2.5323 226.558 2.5323C229.808 2.5323 229.819 2.79235 233.07 2.79235C236.32 2.79235 236.331 2.85736 239.582 2.85736C242.832 2.85736 242.843 2.47812 246.104 2.47812C249.366 2.47812 249.366 2.08805 252.627 2.08805C255.889 2.08805 255.889 2.33726 259.15 2.33726C262.412 2.33726 262.412 1.99054 265.673 1.99054C268.934 1.99054 268.934 2.40228 272.196 2.40228C275.457 2.40228 275.457 2.19641 278.708 2.19641C281.958 2.19641 281.969 2.19641 285.22 2.19641C288.47 2.19641 288.481 2.62982 291.743 2.62982C295.004 2.62982 295.004 2.05555 298.265 2.05555C301.527 2.05555 301.527 2.12056 304.788 2.12056C308.05 2.12056 308.05 1.80634 311.311 1.80634C314.573 1.80634 314.573 2.09889 317.823 2.09889C321.074 2.09889 321.085 2.66232 324.346 2.66232C327.607 2.66232 327.607 1.95803 330.869 1.95803C334.13 1.95803 334.13 2.59731 337.392 2.59731C339.97 2.59731 342.246 3.42079 343.936 5.11109C345.626 6.8014 347.057 9.0768 347.057 11.6556C347.057 14.787 346.97 14.787 346.97 17.9076C346.97 21.0281 346.385 21.0389 346.385 24.1595C346.385 27.2801 346.526 27.2909 346.526 30.4115C346.526 33.532 346.851 33.532 346.851 36.6634C346.851 39.7948 346.374 39.7948 346.374 42.9154C346.374 46.0359 346.482 46.0468 346.482 49.1673C346.482 52.2879 347.002 52.2987 347.002 55.4193C347.002 58.5398 347.219 58.5507 347.219 61.6712C347.219 64.7918 346.807 64.8026 346.807 67.934C346.807 71.0654 347.241 71.0654 347.241 74.186C347.241 77.3065 346.363 77.3173 346.363 80.4487C346.363 83.5801 346.818 83.5801 346.764 86.7115C346.71 89.8429 346.547 89.8429 346.547 92.9743L346.558 92.9851Z" stroke="black" stroke-width="3.25058" stroke-linecap="round" stroke-linejoin="round"/>
</svg>
